<svg id="Livello_1" data-name="Livello 1" xmlns="http://www.w3.org/2000/svg" viewBox="0 0 1246.38 914.91"><defs><style>.cls-1{fill:#92cff1;}.cls-2{fill:#e1f3fb;}.cls-3{fill:#82cbe7;}.cls-4{fill:#b3e2f1;}.cls-5{fill:#2a9bd3;}.cls-6{fill:#58b9de;}</style></defs><title>Senza titolo-1</title><path class="cls-1" d="M1141.7,827.18C1107,866,1064.09,899.1,1013.79,910.59c65.53,12.62,128.86-4.08,196.07-69.14C1187.9,838,1165.16,833.15,1141.7,827.18Z" transform="translate(-0.62)"/><path class="cls-2" d="M270,535C-280,271,471.5,0,471.5,0H64.25S-144,398,193,539c57.16,23.91,114.09,34.16,174.91,44.34C337.61,567.93,305.06,551.83,270,535Z" transform="translate(-0.62)"/><path class="cls-3" d="M482.32,604.51c-3.81-.87-7.58-1.72-11.32-2.51-35.95-7.65-70.09-13.14-103.09-18.66C812.85,809.63,768.17,886.06,950,913a171.36,171.36,0,0,0,63.79-2.41C905.6,889.75,791.44,789,644,694,594.86,662.34,539.32,633.47,482.32,604.51Z" transform="translate(-0.62)"/><path class="cls-4" d="M270,535c35.06,16.83,67.61,32.93,97.91,48.34,33,5.52,67.14,11,103.09,18.66,3.74.79,7.51,1.64,11.32,2.51C410.58,568.07,336.53,531.48,270,489-120,240,552.33,0,552.33,0H471.5S-280,271,270,535Z" transform="translate(-0.62)"/><path class="cls-3" d="M1209.86,841.45A492.83,492.83,0,0,0,1247,801V652s-36.9,98.73-105.3,175.18C1165.16,833.15,1187.9,838,1209.86,841.45Z" transform="translate(-0.62)"/><path class="cls-2" d="M1209.86,841.45c12.64,2,25,3.53,37.14,4.55V801A492.83,492.83,0,0,1,1209.86,841.45Z" transform="translate(-0.62)"/><path class="cls-5" d="M552.33,0S-120,240,270,489c66.53,42.48,140.58,79.07,212.32,115.51,60.25,13.9,129,37.8,193.68,59.49,172.41,57.84,331,129,465.7,163.18C1210.1,750.73,1247,652,1247,652V0Z" transform="translate(-0.62)"/><path class="cls-6" d="M1141.7,827.18C1007,793,848.42,721.84,676,664c-64.66-21.69-133.43-45.59-193.68-59.49,57,29,112.54,57.83,161.68,89.49,147.45,95,261.61,195.76,369.81,216.58C1064.1,899.1,1107,866,1141.7,827.18Z" transform="translate(-0.62)"/></svg>