<?xml version="1.0" encoding="utf-8"?>
<!-- Generator: Adobe Illustrator 17.0.0, SVG Export Plug-In . SVG Version: 6.00 Build 0)  -->
<!DOCTYPE svg PUBLIC "-//W3C//DTD SVG 1.1//EN" "http://www.w3.org/Graphics/SVG/1.1/DTD/svg11.dtd">
<svg version="1.1" id="Livello_1" xmlns="http://www.w3.org/2000/svg" xmlns:xlink="http://www.w3.org/1999/xlink" x="0px" y="0px"
	 width="824px" height="271px" viewBox="0 0 824 271" enable-background="new 0 0 824 271" xml:space="preserve">
<g>
	<path d="M189.976,1c0.125,1.652,0.358,3.304,0.359,4.956c0.02,41.981,0.013,83.962,0.017,125.943
		c0.001,13.422-1.756,26.513-7.013,39c-9.57,22.733-26.168,37.832-49.669,45.014c-22.995,7.027-45.863,6.079-67.584-4.427
		c-28.954-14.005-43.394-38.526-44.763-69.823c-1.388-31.761-0.489-63.622-0.59-95.439c-0.006-1.948-0.001-3.895-0.001-6.186
		c-6.41,0-12.196,0-18.732,0C2,26.8,2,13.9,2,1c22.997,0,45.994,0,68.991,0c-0.054,0.663-0.157,1.326-0.157,1.988
		c-0.003,46.153-0.021,92.306,0.055,138.46c0.005,3.297,0.392,6.666,1.139,9.876c6.113,26.278,36.322,36.596,55.71,18.994
		c9.207-8.359,12.619-19.097,12.58-31.388c-0.14-44.82-0.052-89.64-0.065-134.461c0-1.156-0.177-2.313-0.271-3.469
		C156.647,1,173.312,1,189.976,1z"/>
	<path d="M602.925,1c0,12.133,0,24.266,0,37.03c-9.433,0-18.535-0.008-27.637,0.002c-8.454,0.01-9.467,0.988-9.562,9.428
		c-0.058,5.149-0.011,10.299-0.011,16.025c12.41,0,24.479,0,36.892,0c0,11.29,0,22.004,0,33.112c-12.116,0-24.063,0-36.651,0
		c0,58.417,0,116.449,0,174.876c-22.372,0-44.104,0-66.286,0c0-11.755,0-23.632,0-36.097c5.719,0,11.455,0,17.764,0
		c0.095-2.144,0.227-3.736,0.227-5.327c0.011-42.824-0.04-85.648,0.09-128.472c0.012-4.007-0.87-5.779-5.203-5.401
		c-4.117,0.359-8.29,0.077-12.879,0.077c0-10.888,0-21.403,0-32.534c5.876,0,11.615,0,18.003,0c0-6.375-0.019-12.152,0.003-17.928
		c0.094-23.946,12.808-39.278,36.449-44.005c0.63-0.126,1.207-0.519,1.808-0.787C571.595,1,587.26,1,602.925,1z"/>
	<path d="M465.942,1c0,14.422,0,28.844,0,43.543c-16.226,0-31.768,0-47.994,0c0-14.699,0-29.121,0-43.543
		C433.946,1,449.944,1,465.942,1z"/>
	<path d="M616.846,271.614c3.447-11.842,6.749-23.473,10.344-35.013c0.296-0.949,2.571-1.777,3.947-1.81
		c7.493-0.177,14.996-0.226,22.489-0.045c6.457,0.156,10.712-2.829,13.509-8.405c3.397-6.771,4.365-13.043,1.019-20.737
		c-19.613-45.108-38.618-90.481-57.817-135.768c-0.764-1.802-1.418-3.65-2.367-6.109c11.638,0,22.75,0,33.863,0
		c13.948,0,13.948,0,18.895,13.049c9.305,24.544,18.609,49.089,27.921,73.63c0.405,1.067,0.884,2.105,1.805,4.286
		c3.024-10.762,5.772-20.488,8.488-30.223c5.311-19.038,10.656-38.066,15.839-57.139c0.673-2.478,1.524-3.666,4.28-3.647
		c16.494,0.108,32.988,0.064,49.482,0.091c0.624,0.001,1.247,0.213,2.082,0.366c0,11.908,0,23.649,0,35.948
		c-4.487,0-8.796,0.295-13.043-0.086c-3.948-0.355-5.439,1.256-6.5,4.878c-11.996,40.964-24.15,81.881-36.266,122.81
		c-0.471,1.592-0.993,3.169-1.484,4.756c-7.262,23.5-22.989,37.258-47.594,38.96C649.678,272.516,633.478,271.614,616.846,271.614z"
		/>
	<path d="M367.989,178.614c6.257,0,12,0,18.031,0c0,12.338,0,24.071,0,36.099c-21.26,0-42.333,0-64.031,0c0-1.844,0-3.614,0-5.384
		c0-28.319,0.037-56.638-0.043-84.957c-0.011-3.976-0.347-7.989-0.966-11.917c-2.46-15.601-17.007-22.181-30.413-13.594
		c-9.497,6.084-13.382,15.497-13.448,26.398c-0.165,27.652-0.055,55.305-0.055,82.958c0,1.994,0,3.987,0,6.385
		c-15.902,0-31.602,0-47.615,0c0-50.091,0-100.132,0-150.876c5.944,0,11.714,0,17.483,0c7.163,0,14.33,0.133,21.488-0.058
		c3.19-0.085,4.556,0.931,4.537,4.206c-0.014,2.292,0.55,4.587,0.955,7.619c1.542-1.201,2.639-2.015,3.693-2.883
		c17.167-14.132,36.25-19.251,57.086-9.827c21.523,9.735,32.645,27.264,33.165,50.907c0.432,19.647,0.117,39.311,0.133,58.968
		C367.99,174.443,367.989,176.228,367.989,178.614z"/>
	<path d="M465.531,214.845c-15.871,0-31.324,0-47.403,0c0-38.175,0-76.196,0-114.613c-6.217,0-11.824,0-17.793,0
		c0-12.263,0-24.129,0-36.251c21.742,0,43.311,0,65.196,0C465.531,114.258,465.531,164.298,465.531,214.845z"/>
</g>
<g>
	<path d="M805.279,100.186c-0.942,0-1.885,0-2.827,0c-0.157-0.038-0.312-0.092-0.472-0.113c-7.502-1.025-12.587-5.103-15.212-12.181
		c-0.516-1.393-0.672-2.919-0.995-4.384c0-0.942,0-1.885,0-2.827c0.039-0.158,0.092-0.314,0.115-0.475
		c1.043-7.594,5.203-12.688,12.381-15.285c1.331-0.481,2.785-0.621,4.183-0.918c0.942,0,1.885,0,2.827,0
		c0.157,0.039,0.312,0.093,0.471,0.114c7.502,1.024,12.588,5.102,15.213,12.179c0.517,1.393,0.672,2.92,0.994,4.384
		c0,0.942,0,1.885,0,2.827c-0.04,0.182-0.099,0.362-0.119,0.546c-0.757,7.222-5.915,13.401-12.909,15.394
		C807.739,99.787,806.497,99.945,805.279,100.186z M803.894,68.98c-7.167-0.037-13.063,5.817-13.143,13.051
		c-0.079,7.169,5.854,13.144,13.086,13.178c7.17,0.034,13.068-5.822,13.143-13.051C817.055,74.985,811.13,69.018,803.894,68.98z"/>
	<path d="M807.824,84.713c1.377,1.89,2.701,3.707,4.12,5.654c-1.477,0-2.809,0.016-4.14-0.019c-0.177-0.005-0.382-0.245-0.514-0.421
		c-0.912-1.229-1.822-2.46-2.702-3.713c-0.246-0.35-0.511-0.48-0.933-0.462c-0.797,0.034-1.596,0.01-2.48,0.01
		c0,1.533,0,3.024,0,4.564c-1.205,0-2.324,0-3.489,0c0-5.471,0-10.924,0-16.387c0.024-0.02,0.058-0.074,0.092-0.074
		c2.609,0.044,5.236-0.08,7.822,0.192c2.384,0.251,4.102,1.674,4.635,4.127c0.545,2.505,0.031,4.728-2.131,6.362
		C808.03,84.6,807.944,84.641,807.824,84.713z M801.189,82.321c1.365-0.077,2.664-0.057,3.931-0.25
		c1.235-0.188,1.821-1.059,1.822-2.317c0-1.219-0.577-2.067-1.8-2.251c-1.286-0.193-2.604-0.175-3.952-0.251
		C801.189,78.987,801.189,80.574,801.189,82.321z"/>
</g>
</svg>
