<?xml version="1.0" encoding="utf-8"?>
<!-- Generator: Adobe Illustrator 17.0.0, SVG Export Plug-In . SVG Version: 6.00 Build 0)  -->
<!DOCTYPE svg PUBLIC "-//W3C//DTD SVG 1.1//EN" "http://www.w3.org/Graphics/SVG/1.1/DTD/svg11.dtd">
<svg version="1.1" id="Livello_1" xmlns="http://www.w3.org/2000/svg" xmlns:xlink="http://www.w3.org/1999/xlink" x="0px" y="0px"
	 width="600px" height="600px" viewBox="0 0 600 600" enable-background="new 0 0 600 600" xml:space="preserve">
<g>
	<path d="M113,350c1.633-9.134,2.73-18.402,4.984-27.38c15.159-60.386,64.424-104.536,126.134-113.588
		c23.677-3.473,46.738-1.092,69.371,6.355c1.54,0.507,3.025,1.179,4.535,1.774c-0.092,0.426-0.183,0.853-0.275,1.279
		c-1.699-0.428-3.411-0.809-5.095-1.291c-44.062-12.612-86.207-8.651-125.32,15.967c-37.828,23.809-58.068,58.973-63.437,103.01
		c-0.542,4.449-0.661,8.954-0.853,13.439c-0.159,3.705-0.023,7.17,3.569,9.802c1.013,0.742,0.707,3.733,0.469,5.625
		c-0.337,2.675-2.046,5.427-1.652,7.904c2.547,16.013,6.781,31.544,14.455,45.983c7.247,13.637,16.126,25.841,28.108,35.89
		c16.62,13.939,34.677,25.281,55.225,32.258c32.631,11.08,64.875,9.371,96.507-4.112c13.13-5.597,26.267-11.204,39.139-17.356
		c3.14-1.501,5.244-5.167,7.824-7.838c-0.177-0.396-0.355-0.792-0.532-1.188c0.083,0.75-0.109,1.749,0.301,2.201
		c1.127,1.241,2.489,3.073,3.791,3.1c1.097,0.023,2.475-2.017,3.307-3.397c1.294-2.148,1.831-4.844,3.394-6.72
		c4.783-5.744,9.954-11.163,14.848-16.817c1.069-1.235,1.616-2.921,3.103-3.695c-11.128,28.42-49.458,67.552-106.839,77.453
		c2.641,0.281,4.092,0.436,5.543,0.59c0.028,0.218,0.055,0.436,0.083,0.654c-5.155,0.577-10.319,1.092-15.462,1.762
		c-2.097,0.273-4.15,0.88-6.224,1.336c-4,0-8,0-12,0c-7.177-1.088-14.372-2.068-21.527-3.28
		c-59.081-10.011-108.551-57.177-121.271-115.734C115.48,386.06,114.385,377.998,113,370C113,363.333,113,356.667,113,350z"/>
	<path d="M266.119,226.989c74.085-1.2,135.744,62.155,132.589,134.012c-3.394,77.3-63.318,130.855-133.407,130.404
		c-73.06-0.47-129.68-57.879-132.08-131.662C130.912,288.768,191.943,225.7,266.119,226.989z M235.988,385.079
		c2.523,6.002,7.635,9.253,13.061,11.538c5.54,2.333,11.552,3.545,17.358,5.248c-4.097-0.413-8.254-0.805-12.265-1.789
		c-9.151-2.246-16.168-8.057-22.583-14.916c-5.766,7.223,2.602,9.625,3.68,14.425c-3.333-3.047-6.666-6.094-9.999-9.14
		c-5.986,6.979,1.875,9.437,3.379,13.916c-1.867-1.195-3.384-2.648-4.92-4.079c-1.615-1.504-3.25-2.988-5.582-5.128
		c-0.714,3.137-1.178,5.173-1.698,7.457c-1.375-0.32-2.723-0.635-4.006-0.934c-1.28,2.054-2.065,4.247-3.599,5.579
		c-3.074,2.671-2.102,4.597,0.245,6.997c20.654,21.124,45.784,28.84,74.354,22.829c42.429-8.927,68.667-49.945,60.026-92.427
		c-2.879-14.155-9.157-26.727-19.131-37.273c-1.128-1.193-4.308-2.445-4.688-2.02c-2.305,2.58-7.539,2.115-7.56,7.14
		c-0.002,0.493-1.776,1.092-2.797,1.439c-1.33,0.451-2.729,0.698-4.77,1.198c2.311,2.853,4.126,5.093,5.94,7.333
		c-1.619-0.181-2.388-1.377-3.37-1.589c-1.788-0.386-3.702-0.189-5.563-0.236c0.296,1.58,0.301,3.299,0.967,4.703
		c0.725,1.528,2.065,2.765,3.137,4.129c-3.819-1.82-6.824-6.167-11.661-2.091c12.591,18.54,14.539,23.519,13.487,35.025
		c-0.409-2.506-0.807-4.441-1.03-6.396c-0.915-7.999-3.726-15.201-9.179-21.181c-1.17-1.284-3.051-1.919-4.605-2.853
		c12.134,22.669,12.901,38.568,0.092,51.693C274.748,402.08,255.512,400.33,235.988,385.079z M312.632,430.491
		c30.071-17.242,48.021-58.99,34.652-98.514c-13.681-40.448-55.299-64.682-97.37-56.71c-42.548,8.062-71.529,45.572-69.548,90.017
		c1.149,25.782,24.026,63.557,39.438,65.12c-46.912-32.915-46.117-92.493-15.579-125.945c30.65-33.574,82.362-36.757,116.543-6.768
		c16.928,14.852,26.63,33.722,28.25,56.089C351.348,385.943,337.948,411.118,312.632,430.491z M284.117,375.598
		c7.516-7.933,7.908-21.378,1.51-29.207C290.557,355.961,290.277,365.379,284.117,375.598z"/>
	<path d="M484.966,228.709c-3.699,0.429-7.085,1.116-10.475,1.132c-3.504,0.017-5.522,1.451-6.879,4.583
		c-7.019,16.197-14.094,32.37-21.254,48.504c-1.404,3.164-3.004,6.31-4.991,9.128c-2.35,3.332-2.411,5.933,1.589,7.481
		c4.367,1.69,4.607,4.101,2.931,8.141c-1.462,3.524-1.764,7.53-2.845,12.559c-2.932-4.003-5.307-6.912-7.296-10.065
		c-1.646-2.609-3.407-3.689-6.582-2.759c-3.286,0.962-6.743,1.341-11.174,2.172c3.094-6.76,5.789-12.648,8.586-18.759
		c1.463,0.812,2.128,1.018,2.569,1.452c3.858,3.794,6.479,3.266,8.679-1.871c5.834-13.622,11.62-27.265,17.454-40.887
		c2.409-5.625,4.892-11.218,8.028-18.396c-12.022,0.929-22.768,1.759-34.382,2.656c0.982-2.48,1.446-4.412,2.441-6.014
		c2.584-4.162,1.922-7.418-1.43-11.044c-20.607-22.29-42.889-42.391-70.718-55.436c-17.072-8.003-35.172-12.497-53.82-14.227
		c-13.063-1.212-26.264-0.896-39.398-1.421c-4.903-0.196-9.045,0.433-10.192,7.546c-13.205-14.619-25.612-28.355-39.086-43.271
		c5.399-0.288,9.482-0.506,13.566-0.724c0.072,0.269,0.145,0.537,0.217,0.806c-1.958,0.857-3.917,1.713-7.013,3.067
		c10.62,11.897,20.632,23.113,30.934,34.653c4.77-6.222,11.587-5.335,17.342-5.366c29.13-0.161,58.048,3.094,85.107,14.157
		c16.514,6.751,31.659,16.846,47.444,25.392c2.622,1.419,5.256,3.052,8.092,3.79c5.964,1.552,10.152-1.288,9.358-7.323
		c-0.869-6.613-2.745-13.41-5.709-19.367c-6.816-13.696-14.592-26.913-21.887-40.374c-0.994-1.834-1.465-3.951-2.178-5.938
		c0.586-0.33,1.172-0.661,1.758-0.991c3.523,4.22,7.193,8.326,10.543,12.679c16.432,21.351,32.757,42.783,49.174,64.145
		c2.884,3.753,5.844,6.539,11.666,5.532c3.667-0.634,8.192,1.11,11.649,3.022c1.571,0.869,2.871,5.629,1.925,7.093
		c-6.244,9.661-1.386,16.223,5.319,22.568C484.351,227.038,484.444,227.579,484.966,228.709z M454.067,219.867
		c-0.036,5.086,3.023,8.016,8.479,8.122c5.189,0.101,9.247-3.51,9.253-8.233c0.006-4.258-3.65-7.989-7.831-7.993
		C459.252,211.759,454.094,215.981,454.067,219.867z M470.15,196.86c-2.196,2.253-3.394,3.482-4.592,4.711
		c2.128,1.86,4.256,3.72,6.384,5.58c1.101-1.624,3.283-3.446,3.03-4.821C474.65,200.586,472.353,199.205,470.15,196.86z"/>
	<path d="M358.448,174.84c2.249,0.592,4.768,0.721,6.706,1.848c17.999,10.467,33.321,24.161,47.753,39.079
		c5.052,5.222,5.483,9.47,2.275,15.608c-3.923,7.506-7.126,15.415-10.244,23.306c-1.791,4.533-2.799,9.375-4.378,14.834
		c-17.204-25.75-39.935-43.832-67.586-55.811c-27.653-11.979-56.477-15.7-87.11-11.327c2.347-5.379,4.379-10.044,6.419-14.706
		c4.332-9.899,8.707-19.779,12.978-29.705c1.283-2.982,2.959-4.338,5.73-2.601c-1.66,2.488-3.631,4.758-4.841,7.379
		c-4.396,9.521-8.622,19.124-12.745,28.768c-2.687,6.285-1.764,7.388,4.841,6.893c27.458-2.057,53.569,3.447,79.093,13.348
		c15.199,5.896,28.982,14.109,42.545,22.884c0.419,0.271,0.803,0.679,1.262,0.796c3.378,0.863,8.934,3.289,9.757,2.19
		c2.578-3.441,5.423-8.79,4.427-12.355c-2-7.16-5.54-14.366-10.153-20.205c-6.344-8.031-14.218-14.865-21.556-22.091
		c-1.991-1.961-4.413-3.485-6.637-5.21C357.471,176.789,357.96,175.814,358.448,174.84z"/>
</g>
</svg>
