<?xml version="1.0" encoding="utf-8"?>
<!-- Generator: Adobe Illustrator 17.0.0, SVG Export Plug-In . SVG Version: 6.00 Build 0)  -->
<!DOCTYPE svg PUBLIC "-//W3C//DTD SVG 1.1//EN" "http://www.w3.org/Graphics/SVG/1.1/DTD/svg11.dtd">
<svg version="1.1" id="Livello_1" xmlns="http://www.w3.org/2000/svg" xmlns:xlink="http://www.w3.org/1999/xlink" x="0px" y="0px"
	 width="1231.38px" height="403.811px" viewBox="0 0 1231.38 403.811" enable-background="new 0 0 1231.38 403.811"
	 xml:space="preserve">
<g>
	<path fill="#010101" d="M0,240.811c1.633-9.134,2.73-18.402,4.984-27.38c15.159-60.386,64.424-104.536,126.134-113.588
		c23.677-3.473,46.738-1.092,69.371,6.355c1.54,0.507,3.025,1.179,4.535,1.774c-0.092,0.426-0.183,0.853-0.275,1.279
		c-1.699-0.428-3.411-0.809-5.095-1.291c-44.062-12.612-86.207-8.651-125.32,15.967c-37.828,23.809-58.068,58.973-63.437,103.01
		c-0.542,4.449-0.661,8.954-0.853,13.439c-0.159,3.705-0.023,7.17,3.569,9.802c1.013,0.742,0.707,3.733,0.469,5.625
		c-0.337,2.675-2.046,5.427-1.652,7.904c2.547,16.013,6.781,31.544,14.455,45.983c7.247,13.637,16.126,25.841,28.108,35.89
		c16.62,13.939,34.677,25.281,55.225,32.258c32.631,11.08,64.875,9.371,96.507-4.112c13.13-5.597,26.267-11.204,39.139-17.356
		c3.14-1.501,5.244-5.167,7.824-7.838c-0.177-0.396-0.355-0.792-0.532-1.188c0.083,0.75-0.109,1.749,0.301,2.201
		c1.127,1.241,2.489,3.073,3.791,3.1c1.097,0.023,2.475-2.017,3.307-3.397c1.294-2.148,1.831-4.844,3.394-6.72
		c4.783-5.744,9.954-11.163,14.848-16.817c1.069-1.235,1.616-2.921,3.103-3.695c-11.128,28.42-49.458,67.552-106.839,77.453
		c2.641,0.281,4.092,0.436,5.543,0.59c0.028,0.218,0.055,0.436,0.083,0.654c-5.155,0.577-10.319,1.092-15.462,1.762
		c-2.097,0.273-4.15,0.88-6.224,1.336c-4,0-8,0-12,0c-7.177-1.088-14.372-2.068-21.527-3.28
		C66.393,390.52,16.923,343.354,4.203,284.797C2.48,276.871,1.385,268.809,0,260.811C0,254.144,0,247.478,0,240.811z"/>
	<path fill="#010101" d="M153.119,117.8c74.085-1.2,135.744,62.155,132.589,134.012c-3.394,77.3-63.318,130.855-133.407,130.404
		c-73.06-0.47-129.68-57.879-132.08-131.662C17.912,179.579,78.943,116.511,153.119,117.8z M122.988,275.89
		c2.523,6.002,7.635,9.253,13.061,11.538c5.54,2.333,11.552,3.545,17.358,5.248c-4.097-0.413-8.254-0.805-12.265-1.789
		c-9.151-2.246-16.168-8.057-22.583-14.916c-5.766,7.223,2.602,9.625,3.68,14.425c-3.333-3.047-6.666-6.094-9.999-9.14
		c-5.986,6.979,1.875,9.437,3.379,13.916c-1.867-1.195-3.384-2.648-4.92-4.079c-1.615-1.504-3.25-2.988-5.582-5.128
		c-0.714,3.137-1.178,5.173-1.698,7.457c-1.375-0.32-2.723-0.635-4.006-0.934c-1.28,2.054-2.065,4.247-3.599,5.579
		c-3.074,2.671-2.102,4.597,0.245,6.997c20.654,21.124,45.784,28.84,74.354,22.829c42.429-8.927,68.667-49.945,60.026-92.427
		c-2.879-14.155-9.157-26.727-19.131-37.273c-1.128-1.193-4.308-2.445-4.688-2.02c-2.305,2.58-7.539,2.115-7.56,7.14
		c-0.002,0.493-1.776,1.092-2.797,1.439c-1.33,0.451-2.729,0.698-4.77,1.198c2.311,2.853,4.126,5.093,5.94,7.333
		c-1.619-0.181-2.388-1.377-3.37-1.589c-1.788-0.386-3.702-0.189-5.563-0.236c0.296,1.58,0.301,3.299,0.967,4.703
		c0.725,1.528,2.065,2.765,3.137,4.129c-3.819-1.82-6.824-6.167-11.661-2.091c12.591,18.54,14.539,23.519,13.487,35.025
		c-0.409-2.506-0.807-4.441-1.03-6.396c-0.915-7.999-3.726-15.201-9.179-21.181c-1.17-1.284-3.051-1.919-4.605-2.853
		c12.134,22.669,12.901,38.568,0.092,51.693C161.748,292.891,142.512,291.141,122.988,275.89z M199.632,321.302
		c30.071-17.242,48.021-58.99,34.652-98.514c-13.681-40.448-55.299-64.682-97.37-56.71c-42.548,8.062-71.529,45.572-69.548,90.017
		c1.149,25.782,24.026,63.557,39.438,65.12C59.892,288.3,60.687,228.722,91.225,195.27c30.65-33.574,82.362-36.757,116.543-6.768
		c16.928,14.852,26.63,33.722,28.25,56.089C238.348,276.754,224.948,301.929,199.632,321.302z M171.117,266.409
		c7.516-7.933,7.908-21.378,1.51-29.207C177.557,246.772,177.277,256.19,171.117,266.409z"/>
	<path fill="#010101" d="M371.966,119.52c-3.699,0.429-7.085,1.116-10.475,1.132c-3.504,0.017-5.522,1.451-6.879,4.583
		c-7.019,16.197-14.094,32.37-21.254,48.504c-1.404,3.164-3.004,6.31-4.991,9.128c-2.35,3.332-2.411,5.933,1.589,7.481
		c4.367,1.69,4.607,4.101,2.931,8.141c-1.462,3.524-1.764,7.53-2.845,12.559c-2.932-4.003-5.307-6.912-7.296-10.065
		c-1.646-2.609-3.407-3.689-6.582-2.759c-3.286,0.962-6.743,1.341-11.174,2.172c3.094-6.76,5.789-12.648,8.586-18.759
		c1.463,0.812,2.128,1.018,2.569,1.452c3.858,3.794,6.479,3.266,8.679-1.871c5.834-13.622,11.62-27.265,17.454-40.887
		c2.409-5.625,4.892-11.218,8.028-18.396c-12.022,0.929-22.768,1.759-34.382,2.656c0.982-2.48,1.446-4.412,2.441-6.014
		c2.584-4.162,1.922-7.418-1.43-11.044c-20.607-22.29-42.889-42.391-70.718-55.436c-17.072-8.003-35.172-12.497-53.82-14.227
		c-13.063-1.212-26.264-0.896-39.398-1.421c-4.903-0.196-9.045,0.433-10.192,7.546c-13.205-14.619-25.612-28.355-39.086-43.271
		c5.399-0.288,9.482-0.506,13.566-0.724c0.072,0.269,0.145,0.537,0.217,0.806c-1.958,0.857-3.917,1.713-7.013,3.067
		c10.62,11.897,20.632,23.113,30.934,34.653c4.77-6.222,11.587-5.335,17.342-5.366c29.13-0.161,58.048,3.094,85.107,14.157
		c16.514,6.751,31.659,16.846,47.444,25.392c2.622,1.419,5.256,3.052,8.092,3.79c5.964,1.552,10.152-1.288,9.358-7.323
		c-0.869-6.613-2.745-13.41-5.709-19.367c-6.816-13.696-14.592-26.913-21.887-40.374c-0.994-1.834-1.465-3.951-2.178-5.938
		c0.586-0.33,1.172-0.661,1.758-0.991c3.523,4.22,7.193,8.326,10.543,12.679c16.432,21.351,32.757,42.783,49.174,64.145
		c2.884,3.753,5.844,6.539,11.666,5.532c3.667-0.634,8.192,1.11,11.649,3.022c1.571,0.869,2.871,5.629,1.925,7.093
		c-6.244,9.661-1.386,16.223,5.319,22.568C371.351,117.849,371.444,118.39,371.966,119.52z M341.067,110.678
		c-0.036,5.086,3.023,8.016,8.479,8.122c5.189,0.101,9.247-3.51,9.253-8.233c0.006-4.258-3.65-7.989-7.831-7.993
		C346.252,102.57,341.094,106.792,341.067,110.678z M357.15,87.671c-2.196,2.253-3.394,3.482-4.592,4.711
		c2.128,1.86,4.256,3.72,6.384,5.58c1.101-1.624,3.283-3.446,3.03-4.821C361.65,91.397,359.353,90.016,357.15,87.671z"/>
	<path fill="#010101" d="M245.448,65.651c2.249,0.592,4.768,0.721,6.706,1.848c17.999,10.467,33.321,24.161,47.753,39.079
		c5.052,5.222,5.483,9.47,2.275,15.608c-3.923,7.506-7.126,15.415-10.244,23.306c-1.791,4.533-2.799,9.375-4.378,14.834
		c-17.204-25.75-39.935-43.832-67.586-55.811c-27.653-11.979-56.477-15.7-87.11-11.327c2.347-5.379,4.379-10.044,6.419-14.706
		c4.332-9.899,8.707-19.779,12.978-29.705c1.283-2.982,2.959-4.338,5.73-2.601c-1.66,2.488-3.631,4.758-4.841,7.379
		c-4.396,9.521-8.622,19.124-12.745,28.768c-2.687,6.285-1.764,7.388,4.841,6.893c27.458-2.057,53.569,3.447,79.093,13.348
		c15.199,5.896,28.982,14.109,42.545,22.884c0.419,0.271,0.803,0.679,1.262,0.796c3.378,0.863,8.934,3.289,9.757,2.19
		c2.578-3.441,5.423-8.79,4.427-12.355c-2-7.16-5.54-14.366-10.153-20.205c-6.344-8.031-14.218-14.865-21.556-22.091
		c-1.991-1.961-4.413-3.485-6.637-5.21C244.471,67.6,244.96,66.625,245.448,65.651z"/>
</g>
<g>
	<path fill="#010101" d="M602.399,126.907c0.125,1.652,0.358,3.304,0.359,4.956c0.02,41.981,0.013,83.962,0.017,125.943
		c0.001,13.422-1.756,26.513-7.013,39c-9.57,22.733-26.168,37.832-49.669,45.014c-22.995,7.027-45.863,6.079-67.584-4.427
		c-28.954-14.005-43.394-38.526-44.763-69.823c-1.388-31.761-0.489-63.622-0.59-95.439c-0.006-1.948-0.001-3.895-0.001-6.186
		c-6.41,0-12.196,0-18.732,0c0-13.238,0-26.138,0-39.038c22.997,0,45.994,0,68.991,0c-0.054,0.663-0.157,1.326-0.157,1.988
		c-0.003,46.153-0.021,92.306,0.055,138.46c0.005,3.297,0.392,6.666,1.139,9.876c6.113,26.278,36.322,36.596,55.71,18.994
		c9.207-8.359,12.619-19.097,12.58-31.388c-0.14-44.82-0.052-89.64-0.065-134.461c0-1.156-0.177-2.313-0.271-3.469
		C569.07,126.907,585.735,126.907,602.399,126.907z"/>
	<path fill="#010101" d="M1015.348,126.907c0,12.133,0,24.266,0,37.03c-9.433,0-18.535-0.008-27.637,0.002
		c-8.454,0.01-9.467,0.988-9.562,9.428c-0.058,5.149-0.011,10.299-0.011,16.025c12.41,0,24.479,0,36.892,0
		c0,11.29,0,22.004,0,33.112c-12.116,0-24.063,0-36.651,0c0,58.417,0,116.449,0,174.876c-22.372,0-44.104,0-66.286,0
		c0-11.755,0-23.632,0-36.097c5.719,0,11.455,0,17.764,0c0.095-2.144,0.227-3.736,0.227-5.327
		c0.011-42.824-0.04-85.648,0.09-128.472c0.012-4.007-0.87-5.779-5.203-5.401c-4.117,0.359-8.29,0.077-12.879,0.077
		c0-10.888,0-21.403,0-32.534c5.876,0,11.615,0,18.003,0c0-6.375-0.019-12.152,0.003-17.928
		c0.094-23.946,12.808-39.278,36.449-44.005c0.63-0.126,1.207-0.519,1.808-0.787C984.018,126.907,999.683,126.907,1015.348,126.907z
		"/>
	<path fill="#010101" d="M878.365,126.907c0,14.422,0,28.844,0,43.543c-16.226,0-31.768,0-47.994,0c0-14.699,0-29.121,0-43.543
		C846.369,126.907,862.367,126.907,878.365,126.907z"/>
	<path fill="#010101" d="M1029.269,397.521c3.447-11.842,6.749-23.473,10.344-35.013c0.296-0.949,2.571-1.777,3.947-1.81
		c7.493-0.177,14.996-0.226,22.489-0.045c6.457,0.156,10.712-2.829,13.509-8.405c3.397-6.771,4.365-13.043,1.019-20.737
		c-19.613-45.108-38.618-90.481-57.817-135.768c-0.764-1.802-1.418-3.65-2.367-6.109c11.638,0,22.75,0,33.863,0
		c13.948,0,13.948,0,18.895,13.049c9.305,24.544,18.609,49.089,27.921,73.63c0.405,1.067,0.884,2.105,1.805,4.286
		c3.024-10.762,5.772-20.488,8.488-30.223c5.311-19.038,10.656-38.066,15.839-57.139c0.673-2.478,1.524-3.666,4.28-3.647
		c16.494,0.108,32.988,0.064,49.482,0.091c0.624,0.001,1.247,0.213,2.082,0.366c0,11.908,0,23.649,0,35.948
		c-4.487,0-8.796,0.295-13.043-0.086c-3.948-0.355-5.439,1.256-6.5,4.878c-11.996,40.964-24.15,81.881-36.266,122.81
		c-0.471,1.592-0.993,3.169-1.484,4.756c-7.262,23.5-22.989,37.258-47.594,38.96
		C1062.101,398.423,1045.901,397.521,1029.269,397.521z"/>
	<path fill="#010101" d="M780.412,304.521c6.257,0,12,0,18.031,0c0,12.338,0,24.071,0,36.099c-21.26,0-42.333,0-64.031,0
		c0-1.844,0-3.614,0-5.384c0-28.319,0.037-56.638-0.043-84.957c-0.011-3.976-0.347-7.989-0.966-11.917
		c-2.46-15.601-17.007-22.181-30.413-13.594c-9.497,6.084-13.382,15.497-13.448,26.398c-0.165,27.652-0.055,55.305-0.055,82.958
		c0,1.994,0,3.987,0,6.385c-15.902,0-31.602,0-47.615,0c0-50.091,0-100.132,0-150.876c5.944,0,11.714,0,17.483,0
		c7.163,0,14.33,0.133,21.488-0.058c3.19-0.085,4.556,0.931,4.537,4.206c-0.014,2.292,0.55,4.587,0.955,7.619
		c1.542-1.201,2.639-2.015,3.693-2.883c17.167-14.132,36.25-19.251,57.086-9.827c21.523,9.735,32.645,27.264,33.165,50.907
		c0.432,19.647,0.117,39.311,0.133,58.968C780.413,300.35,780.412,302.135,780.412,304.521z"/>
	<path fill="#010101" d="M877.954,340.752c-15.871,0-31.324,0-47.403,0c0-38.175,0-76.196,0-114.613c-6.217,0-11.824,0-17.793,0
		c0-12.263,0-24.129,0-36.251c21.742,0,43.311,0,65.196,0C877.954,240.165,877.954,290.205,877.954,340.752z"/>
</g>
<g>
	<path fill="#010101" d="M1214.702,226.093c-0.942,0-1.885,0-2.827,0c-0.157-0.038-0.312-0.092-0.472-0.113
		c-7.502-1.025-12.587-5.103-15.212-12.181c-0.516-1.393-0.672-2.919-0.995-4.384c0-0.942,0-1.885,0-2.827
		c0.039-0.158,0.092-0.314,0.115-0.475c1.043-7.594,5.203-12.688,12.381-15.285c1.331-0.481,2.785-0.621,4.183-0.918
		c0.942,0,1.885,0,2.827,0c0.157,0.039,0.312,0.093,0.471,0.114c7.502,1.024,12.588,5.102,15.213,12.179
		c0.517,1.393,0.672,2.92,0.994,4.384c0,0.942,0,1.885,0,2.827c-0.04,0.182-0.099,0.362-0.119,0.546
		c-0.757,7.222-5.915,13.401-12.909,15.394C1217.162,225.694,1215.92,225.852,1214.702,226.093z M1213.317,194.887
		c-7.167-0.037-13.063,5.817-13.143,13.051c-0.079,7.169,5.854,13.144,13.086,13.178c7.17,0.034,13.068-5.822,13.143-13.051
		C1226.478,200.892,1220.553,194.925,1213.317,194.887z"/>
	<path fill="#010101" d="M1217.247,210.62c1.377,1.89,2.701,3.707,4.12,5.654c-1.477,0-2.809,0.016-4.14-0.019
		c-0.177-0.005-0.382-0.245-0.514-0.421c-0.912-1.229-1.822-2.46-2.702-3.713c-0.246-0.35-0.511-0.48-0.933-0.462
		c-0.797,0.034-1.596,0.01-2.48,0.01c0,1.533,0,3.024,0,4.564c-1.205,0-2.324,0-3.489,0c0-5.471,0-10.924,0-16.387
		c0.024-0.02,0.058-0.074,0.092-0.074c2.609,0.044,5.236-0.08,7.822,0.192c2.384,0.251,4.102,1.674,4.635,4.127
		c0.545,2.505,0.031,4.728-2.131,6.362C1217.453,210.507,1217.367,210.548,1217.247,210.62z M1210.612,208.228
		c1.365-0.077,2.664-0.057,3.931-0.25c1.235-0.188,1.821-1.059,1.822-2.317c0-1.219-0.577-2.067-1.8-2.251
		c-1.286-0.193-2.604-0.175-3.952-0.251C1210.612,204.894,1210.612,206.481,1210.612,208.228z"/>
</g>
</svg>
